# xmcd CD database file generated by Grip 3.2.0
# 
# Track frame offsets:
#       150
#       14172
#       57615
#       117171
#       138145
#       162228
#       208959
# 
# Disc length: 3382 seconds
# 
# Revision: 2
# Processed by: cddbd v1.5.2PL0 Copyright (c) Steve Scherf et al.
# Submitted via: Grip 3.2.0
# 
DISCID=670d3407
DTITLE=Bernard Allison - Energized 1
DYEAR=2006
DGENRE=Other
TTITLE0=Another Ride To The City
TTITLE1=It's A Man Down There
TTITLE2=Bad Love
TTITLE3=A Woman Named Trouble
TTITLE4=Into My Life
TTITLE5=Too Many Women
TTITLE6=The Way Love Was Meant To Be
EXTD=
EXTT0=
EXTT1=
EXTT2=
EXTT3=
EXTT4=
EXTT5=
EXTT6=
PLAYORDER=
